<?xml version="1.0" encoding="UTF-8" standalone="no"?>
<svg width="206px" height="306px" viewBox="0 0 206 306" version="1.1" xmlns="http://www.w3.org/2000/svg" xmlns:xlink="http://www.w3.org/1999/xlink" xmlns:sketch="http://www.bohemiancoding.com/sketch/ns">
    <!-- Generator: Sketch 3.3.2 (12043) - http://www.bohemiancoding.com/sketch -->
    <title>arrowhead</title>
    <desc>Created with Sketch.</desc>
    <defs></defs>
    <g id="Page-1" stroke="none" stroke-width="1" fill="none" fill-rule="evenodd" sketch:type="MSPage">
        <g id="arrow" sketch:type="MSLayerGroup" fill="#222222">
            <path d="M205.274767,217.720843 C205.265147,217.574766 205.245161,217.300897 205.213225,216.903345 C205.160718,216.249715 205.093095,215.480644 205.008772,214.600241 C204.768887,212.095658 204.443195,209.195196 204.019006,205.931723 C202.809331,196.625158 201.053387,186.262267 198.649309,175.105807 C191.78036,143.229486 181.094268,111.349441 165.764082,81.5682658 C149.750667,50.4598175 129.52426,23.4458343 104.611453,1.73817813 L102.640625,0.0209068044 L100.669797,1.73817813 C75.7569897,23.4458343 55.5305832,50.4598175 39.5171683,81.5682658 C24.1869817,111.349441 13.5008899,143.229486 6.6319409,175.105807 C4.2278632,186.262267 2.47191858,196.625158 1.26224377,205.931723 C0.838054897,209.195196 0.512362735,212.095658 0.272478437,214.600241 C0.188155088,215.480644 0.120531938,216.249715 0.0680247083,216.903345 C0.0360887099,217.300897 0.0161027123,217.574766 0.00648340963,217.720843 L0,217.917969 C0,219.089099 1.20119949,223.435226 3.03087498,227.884992 C5.9457489,234.973957 10.3177591,242.538993 16.4307012,250.276096 C33.7470195,272.193225 61.4223962,291.234303 101.667376,305.036962 L102.640625,305.370753 L103.613874,305.036962 C128.520396,296.494872 148.807389,285.830179 164.91898,273.510663 C180.45375,261.632207 191.332009,248.858404 198.348079,236.042992 C200.823158,231.52206 202.637339,227.307895 203.892722,223.506372 C204.66158,221.17813 205.076533,219.472863 205.240127,218.495025 L205.28125,218.249221 L205.28125,218 L205.28125,217.917969 L205.274767,217.720843 L205.274767,217.720843 Z M199.287733,218.115094 L202.28125,217.917969 L199.28125,217.917969 L199.28125,218 L202.28125,218 L199.322373,217.504975 C199.299543,217.641436 199.232062,217.972079 199.107497,218.483985 C198.889547,219.379661 198.589638,220.430921 198.195342,221.624918 C197.05208,225.086922 195.38198,228.966401 193.085173,233.161702 C186.467282,245.24981 176.137531,257.379528 161.274488,268.744357 C145.689037,280.661566 125.9765,291.024273 101.667376,299.361476 L103.613874,299.361476 C64.4324103,285.923566 37.7227954,267.546947 21.1386057,246.556468 C15.3785502,239.266011 11.2866966,232.185739 8.58007606,225.603245 C7.64112091,223.319709 6.94253279,221.267758 6.45037362,219.487049 C6.28096975,218.87412 6.14978346,218.341799 6.05331517,217.898334 C6.06267293,217.941352 6,217.609016 6,217.917969 L3,217.917969 L5.99351659,218.115094 C6.00125728,217.997545 6.01914704,217.7524 6.04875833,217.383788 C6.09882992,216.760478 6.16376864,216.021936 6.245146,215.172292 C6.47869228,212.733883 6.79685521,209.900473 7.21219207,206.705102 C8.40116222,197.557827 10.1294987,187.357868 12.4973073,176.36972 C19.2623193,144.975734 29.7842379,113.58547 44.8518636,84.3143587 C60.5354914,53.8465711 80.3086144,27.4379842 104.611453,6.26182187 L100.669797,6.26182187 C124.972636,27.4379842 144.745759,53.8465711 160.429386,84.3143587 C175.497012,113.58547 186.018931,144.975734 192.783943,176.36972 C195.151751,187.357868 196.880088,197.557827 198.069058,206.705102 C198.484395,209.900473 198.802558,212.733883 199.036104,215.172292 C199.117481,216.021936 199.18242,216.760478 199.232492,217.383788 C199.262103,217.7524 199.279993,217.997545 199.287733,218.115094 L199.287733,218.115094 Z" id="Shape" sketch:type="MSShapeGroup"></path>
            <path d="M188.92428,151.010493 C188.572894,151.039958 187.927027,151.106268 187.006201,151.219284 C185.493577,151.404932 183.745243,151.65701 181.780715,151.985405 C176.191225,152.919759 169.972683,154.278063 163.281242,156.139873 C144.175259,161.455876 125.069833,169.742711 107.223696,181.646081 C76.7897812,201.945497 53.253173,230.627723 39.3597721,268.978163 L45.0009953,271.021837 C58.4413136,233.922056 81.1487497,206.250277 110.553048,186.637615 C127.832298,175.112359 146.361214,167.075581 164.889573,161.920295 C171.370152,160.117154 177.382771,158.80383 182.769964,157.903292 C184.647275,157.589476 186.309553,157.349806 187.737113,157.174598 C188.231827,157.11388 188.66052,157.065637 189.020732,157.028655 C189.229904,157.00718 189.3657,156.994535 189.425659,156.989507 L188.92428,151.010493 L188.92428,151.010493 Z" id="Shape" sketch:type="MSShapeGroup"></path>
        </g>
    </g>
</svg>